<svg width="1080" height="1080" viewBox="0 0 1080 1080" fill="none" xmlns="http://www.w3.org/2000/svg">
<g clip-path="url(#clip0_201_2)">
<rect width="1080" height="1080" fill="black"/>
<path d="M88.8281 227.146H166.587C199.855 227.146 225.034 231.818 242.124 241.16C259.214 250.503 267.759 266.909 267.759 290.379C267.759 299.835 266.221 308.38 263.145 316.014C260.182 323.647 255.853 329.913 250.156 334.812C244.46 339.712 237.51 342.902 229.307 344.383V346.092C237.624 347.801 245.143 350.763 251.865 354.979C258.587 359.08 263.942 365.118 267.93 373.094C272.031 380.955 274.082 391.437 274.082 404.539C274.082 419.692 270.379 432.68 262.974 443.504C255.568 454.327 244.972 462.645 231.187 468.455C217.515 474.152 201.222 477 182.31 477H88.8281V227.146ZM141.807 326.097H172.568C187.949 326.097 198.602 323.704 204.526 318.919C210.451 314.02 213.413 306.842 213.413 297.386C213.413 287.815 209.881 280.979 202.817 276.878C195.868 272.662 184.816 270.555 169.663 270.555H141.807V326.097ZM141.807 368.138V433.25H176.328C192.279 433.25 203.387 430.174 209.653 424.021C215.92 417.869 219.053 409.609 219.053 399.241C219.053 393.089 217.686 387.677 214.951 383.006C212.217 378.335 207.603 374.689 201.108 372.068C194.728 369.448 185.898 368.138 174.619 368.138H141.807ZM323.984 477V227.146H376.963V433.25H478.306V477H323.984ZM748.667 351.731C748.667 370.986 746.274 388.532 741.489 404.368C736.704 420.091 729.412 433.649 719.614 445.042C709.93 456.435 697.625 465.208 682.7 471.36C667.775 477.399 650.116 480.418 629.722 480.418C609.328 480.418 591.668 477.399 576.743 471.36C561.818 465.208 549.456 456.435 539.658 445.042C529.974 433.649 522.739 420.034 517.954 404.197C513.169 388.361 510.776 370.758 510.776 351.39C510.776 325.527 514.992 303.025 523.423 283.885C531.968 264.63 545.07 249.705 562.729 239.109C580.389 228.514 602.834 223.216 630.063 223.216C657.179 223.216 679.453 228.514 696.885 239.109C714.43 249.705 727.419 264.63 735.85 283.885C744.395 303.139 748.667 325.755 748.667 351.731ZM566.318 351.731C566.318 369.163 568.483 384.202 572.812 396.849C577.256 409.381 584.149 419.065 593.491 425.901C602.834 432.623 614.91 435.984 629.722 435.984C644.761 435.984 656.951 432.623 666.294 425.901C675.636 419.065 682.415 409.381 686.631 396.849C690.96 384.202 693.125 369.163 693.125 351.731C693.125 325.527 688.226 304.905 678.428 289.866C668.63 274.827 652.508 267.308 630.063 267.308C615.138 267.308 602.948 270.726 593.491 277.562C584.149 284.284 577.256 293.968 572.812 306.614C568.483 319.147 566.318 334.186 566.318 351.731ZM895.298 336.692H994.419V466.233C981.317 470.563 967.702 474.038 953.574 476.658C939.447 479.165 923.439 480.418 905.552 480.418C880.715 480.418 859.637 475.519 842.319 465.721C825.002 455.923 811.842 441.453 802.842 422.312C793.841 403.172 789.341 379.645 789.341 351.731C789.341 325.527 794.354 302.854 804.38 283.714C814.52 264.573 829.274 249.762 848.643 239.28C868.125 228.799 891.88 223.558 919.907 223.558C933.123 223.558 946.169 224.982 959.043 227.83C971.917 230.678 983.595 234.381 994.077 238.938L976.475 281.321C968.841 277.448 960.125 274.201 950.327 271.58C940.529 268.96 930.275 267.649 919.565 267.649C904.185 267.649 890.798 271.181 879.404 278.245C868.125 285.309 859.352 295.221 853.086 307.981C846.934 320.628 843.857 335.553 843.857 352.757C843.857 369.049 846.079 383.519 850.522 396.165C854.966 408.698 861.973 418.553 871.543 425.73C881.113 432.794 893.589 436.326 908.97 436.326C916.489 436.326 922.812 435.984 927.939 435.301C933.18 434.503 938.079 433.706 942.637 432.908V380.784H895.298V336.692Z" fill="white"/>
<path d="M252.042 562.146L167.105 812H109.342L24.5762 562.146H78.0674L125.064 710.828C125.862 713.335 127.172 718.063 128.995 725.013C130.818 731.849 132.641 739.14 134.464 746.888C136.401 754.521 137.711 760.844 138.395 765.857C139.078 760.844 140.274 754.521 141.983 746.888C143.806 739.254 145.572 732.02 147.281 725.184C149.104 718.234 150.414 713.449 151.212 710.828L198.551 562.146H252.042ZM427.555 812H283.658V562.146H427.555V605.555H336.637V660.413H421.231V703.821H336.637V768.25H427.555V812ZM552.652 562.146C575.325 562.146 594.01 564.881 608.707 570.35C623.518 575.818 634.513 584.078 641.69 595.13C648.868 606.181 652.457 620.138 652.457 637C652.457 648.393 650.292 658.362 645.963 666.907C641.633 675.452 635.937 682.687 628.873 688.611C621.809 694.536 614.176 699.378 605.973 703.138L679.459 812H620.67L561.026 716.126H532.828V812H479.85V562.146H552.652ZM548.893 605.555H532.828V673.06H549.918C567.464 673.06 579.996 670.154 587.516 664.344C595.149 658.419 598.966 649.76 598.966 638.367C598.966 626.518 594.864 618.087 586.661 613.074C578.572 608.061 565.982 605.555 548.893 605.555ZM858.39 742.615C858.39 757.426 854.801 770.301 847.623 781.238C840.445 792.176 829.964 800.607 816.178 806.531C802.506 812.456 785.872 815.418 766.275 815.418C757.617 815.418 749.129 814.848 740.812 813.709C732.608 812.57 724.69 810.918 717.057 808.753C709.537 806.474 702.359 803.683 695.523 800.379V751.16C707.372 756.401 719.677 761.129 732.438 765.345C745.198 769.56 757.844 771.668 770.377 771.668C779.036 771.668 785.986 770.529 791.227 768.25C796.581 765.971 800.455 762.838 802.848 758.851C805.24 754.863 806.437 750.306 806.437 745.179C806.437 738.912 804.329 733.558 800.113 729.114C795.898 724.671 790.087 720.512 782.682 716.639C775.39 712.765 767.13 708.606 757.901 704.163C752.091 701.429 745.768 698.125 738.932 694.251C732.096 690.263 725.602 685.421 719.449 679.725C713.297 674.028 708.227 667.135 704.239 659.046C700.366 650.843 698.429 641.045 698.429 629.651C698.429 614.726 701.847 601.966 708.683 591.37C715.519 580.774 725.26 572.685 737.906 567.103C750.667 561.406 765.706 558.558 783.023 558.558C796.012 558.558 808.373 560.096 820.108 563.172C831.957 566.134 844.319 570.464 857.193 576.16L840.104 617.347C828.596 612.675 818.285 609.087 809.171 606.58C800.056 603.96 790.771 602.649 781.314 602.649C774.706 602.649 769.067 603.732 764.396 605.896C759.724 607.947 756.192 610.91 753.8 614.783C751.407 618.543 750.211 622.929 750.211 627.942C750.211 633.867 751.92 638.88 755.338 642.981C758.87 646.969 764.111 650.843 771.061 654.603C778.124 658.362 786.897 662.749 797.379 667.762C810.139 673.8 821.02 680.123 830.021 686.731C839.135 693.226 846.142 700.916 851.041 709.803C855.94 718.576 858.39 729.513 858.39 742.615ZM1047.57 812H903.678V562.146H1047.57V605.555H956.656V660.413H1041.25V703.821H956.656V768.25H1047.57V812Z" fill="white"/>
</g>
<defs>
<clipPath id="clip0_201_2">
<rect width="1080" height="1080" fill="white"/>
</clipPath>
</defs>
</svg>
